<?xml version="1.0" standalone="no"?>
<!DOCTYPE svg PUBLIC "-//W3C//DTD SVG 20010904//EN"
 "http://www.w3.org/TR/2001/REC-SVG-20010904/DTD/svg10.dtd">
<svg version="1.0" xmlns="http://www.w3.org/2000/svg"
 width="3000.000000pt" height="3000.000000pt" viewBox="0 0 3000.000000 3000.000000"
 preserveAspectRatio="xMidYMid meet">

<g transform="translate(0.000000,3000.000000) scale(0.100000,-0.100000)"
fill="#000000" stroke="none">
<path d="M17738 29248 c-9 -7 -26 -20 -39 -28 -35 -23 -119 -108 -119 -120 0
-6 -4 -8 -10 -5 -5 3 -10 2 -10 -2 0 -10 -24 -44 -52 -74 -9 -10 -26 -36 -38
-59 -11 -22 -24 -40 -28 -40 -5 0 -18 -21 -31 -47 -12 -26 -31 -58 -42 -72
-11 -14 -38 -55 -61 -91 -22 -36 -55 -87 -73 -115 -94 -144 -126 -196 -137
-219 -6 -14 -14 -26 -18 -26 -3 0 -16 -18 -29 -40 -21 -38 -83 -135 -99 -155
-4 -5 -43 -64 -87 -130 -43 -66 -82 -122 -85 -125 -4 -3 -17 -24 -29 -47 -12
-24 -25 -43 -30 -43 -5 0 -14 -13 -21 -30 -7 -16 -16 -30 -21 -30 -5 0 -20
-22 -34 -50 -14 -27 -29 -50 -34 -50 -5 0 -14 -13 -21 -30 -7 -16 -16 -30 -21
-30 -4 0 -10 -8 -13 -18 -4 -10 -15 -28 -25 -39 -10 -11 -26 -34 -35 -50 -8
-17 -22 -37 -29 -45 -8 -8 -22 -28 -31 -46 -9 -18 -20 -32 -25 -32 -4 0 -16
-18 -26 -40 -10 -22 -22 -40 -26 -40 -5 0 -16 -14 -25 -32 -9 -17 -25 -40 -35
-51 -10 -12 -19 -24 -19 -28 0 -4 -6 -14 -13 -21 -7 -7 -24 -31 -37 -53 -13
-22 -27 -42 -31 -45 -3 -3 -14 -20 -23 -37 -9 -18 -20 -33 -24 -33 -5 0 -18
-19 -30 -42 -25 -47 -62 -103 -87 -131 -8 -10 -23 -33 -32 -52 -9 -19 -20 -35
-25 -35 -4 0 -20 -24 -34 -52 -15 -29 -32 -56 -38 -60 -7 -4 -23 -29 -36 -57
-12 -28 -26 -48 -30 -46 -4 2 -19 -22 -35 -55 -16 -33 -31 -57 -35 -55 -4 2
-20 -23 -35 -56 -16 -32 -37 -68 -47 -79 -10 -11 -16 -20 -13 -20 3 0 -5 -15
-18 -32 -13 -18 -46 -73 -72 -123 -44 -82 -48 -95 -46 -150 3 -90 5 -105 14
-105 4 0 7 -7 7 -15 0 -8 5 -15 11 -15 5 0 8 -4 5 -8 -3 -5 17 -19 44 -32 55
-26 42 -27 275 25 39 9 81 18 95 21 45 9 122 33 134 42 6 5 25 12 41 16 44 11
314 146 350 176 9 8 25 19 35 25 10 5 41 23 69 39 28 16 51 33 51 38 0 5 4 7
8 4 5 -3 19 4 30 15 12 11 22 17 22 14 0 -3 10 3 22 14 11 11 25 18 30 15 4
-3 8 -1 8 4 0 5 16 17 35 28 19 10 35 21 35 25 0 4 8 9 18 12 9 2 24 8 32 11
12 5 19 -4 29 -31 8 -21 17 -40 20 -43 3 -3 24 -40 46 -83 21 -44 54 -101 72
-129 18 -27 33 -52 33 -55 0 -3 14 -25 30 -50 17 -24 30 -46 30 -48 0 -2 14
-24 30 -48 17 -25 30 -47 30 -50 0 -9 120 -201 139 -223 11 -12 17 -25 14 -28
-4 -3 -1 -6 5 -6 7 0 12 -6 12 -14 0 -8 6 -21 13 -28 7 -7 27 -37 45 -66 18
-30 37 -59 43 -65 5 -7 36 -48 69 -92 32 -44 64 -85 70 -92 5 -7 10 -16 10
-21 0 -5 9 -19 20 -32 11 -13 20 -29 20 -36 0 -7 3 -14 8 -16 4 -1 25 -30 47
-63 22 -33 43 -62 46 -65 3 -3 9 -15 13 -27 4 -13 12 -23 17 -23 5 0 9 -6 9
-13 0 -44 85 -92 146 -83 49 6 111 42 120 69 3 9 10 15 15 12 5 -4 9 -3 10 2
0 4 3 17 5 28 3 11 6 56 9 100 2 44 6 90 9 103 3 12 8 32 11 45 8 31 8 382 1
437 -4 25 -8 77 -11 115 -2 39 -7 106 -10 150 -4 44 -8 233 -10 420 -1 187 -6
396 -9 465 -4 69 -9 181 -11 250 -3 69 -7 186 -10 260 -3 74 -5 135 -5 135 0
0 -3 45 -5 100 -5 117 -16 293 -21 350 -2 22 -6 164 -9 315 -7 317 -9 365 -20
440 -4 30 -9 71 -11 90 -1 19 -3 35 -4 35 -1 0 -3 25 -5 55 -2 30 -4 55 -5 55
-8 0 -13 219 -6 300 5 60 -29 122 -83 149 -43 23 -160 31 -183 14z"/>
<path d="M10275 29030 c-62 -24 -85 -58 -120 -168 -33 -104 -44 -210 -50 -477
-10 -395 -15 -590 -20 -705 -5 -107 -7 -159 -20 -430 -10 -187 -18 -329 -30
-520 -21 -337 -26 -418 -30 -515 -3 -60 -8 -150 -10 -200 -10 -193 -17 -480
-16 -706 l1 -237 30 -59 c17 -33 45 -74 62 -91 27 -28 37 -32 87 -32 38 0 66
6 86 19 46 30 257 238 317 313 94 118 197 268 183 268 -2 0 15 33 38 73 44 74
169 322 167 332 -1 7 49 97 60 109 5 5 27 -5 51 -23 24 -17 46 -31 50 -31 3 0
48 -25 98 -55 51 -30 96 -55 102 -55 6 0 43 -20 83 -44 41 -25 104 -58 141
-75 37 -17 91 -45 119 -62 27 -17 55 -32 61 -33 5 -1 54 -25 107 -54 53 -28
102 -52 108 -52 6 0 51 -20 101 -45 49 -25 93 -43 98 -41 4 3 52 -19 106 -49
55 -30 105 -55 112 -55 7 0 66 -27 131 -60 164 -83 222 -80 277 15 38 64 38
134 0 200 -16 28 -32 52 -36 55 -4 3 -14 28 -22 56 -15 52 -54 135 -67 144 -4
3 -27 43 -51 90 -24 46 -52 93 -63 104 -18 18 -74 97 -207 291 -34 50 -67 95
-74 100 -7 6 -33 51 -58 101 -25 49 -52 96 -61 103 -8 7 -36 52 -62 100 -26
47 -52 91 -58 96 -7 6 -32 45 -56 87 -24 42 -53 87 -65 100 -11 13 -47 66 -79
118 -59 96 -172 268 -201 305 -9 11 -39 59 -67 108 -28 48 -54 87 -59 87 -4 0
-34 44 -66 98 -32 53 -63 102 -69 107 -7 6 -24 30 -39 55 -16 25 -31 47 -35
50 -3 3 -16 22 -29 43 -12 20 -26 37 -29 37 -4 0 -29 37 -56 83 -27 45 -57 94
-67 109 -11 15 -19 29 -19 31 0 8 -101 171 -109 177 -5 3 -30 40 -56 84 -26
43 -62 93 -80 110 -17 18 -56 68 -85 112 -29 43 -68 93 -86 109 -18 17 -49 64
-69 105 -21 41 -41 77 -45 80 -4 3 -16 23 -28 45 -31 61 -53 76 -119 81 -42 3
-71 -1 -108 -16z"/>
<path d="M23398 26555 c-2 -3 -24 -7 -49 -9 -40 -4 -134 -35 -163 -54 -6 -4
-13 -7 -16 -8 -15 -3 -48 -20 -72 -36 -16 -11 -28 -17 -28 -13 0 3 -19 -9 -42
-28 -24 -20 -47 -36 -53 -36 -5 0 -32 -17 -60 -38 -27 -21 -53 -38 -56 -38 -4
0 -29 -16 -55 -35 -27 -19 -52 -35 -56 -35 -3 0 -27 -16 -53 -35 -26 -19 -50
-35 -53 -35 -4 0 -29 -16 -56 -35 -26 -19 -51 -35 -55 -35 -4 0 -25 -14 -47
-32 -23 -18 -52 -37 -65 -43 -13 -5 -46 -26 -74 -45 -100 -70 -120 -83 -130
-85 -5 -1 -24 -12 -42 -26 -17 -13 -35 -24 -40 -24 -4 0 -26 -14 -47 -30 -22
-17 -44 -30 -48 -30 -5 0 -25 -12 -44 -26 -19 -15 -34 -23 -34 -20 0 4 -20 -9
-45 -30 -25 -20 -45 -33 -45 -30 0 4 -15 -3 -32 -16 -18 -13 -36 -23 -40 -23
-3 0 -21 -11 -40 -25 -18 -14 -44 -31 -58 -38 -23 -11 -45 -24 -140 -82 -95
-58 -117 -71 -140 -82 -14 -7 -39 -24 -57 -37 -17 -13 -33 -22 -35 -20 -2 2
-23 -11 -46 -29 -23 -19 -42 -31 -42 -27 0 4 -16 -5 -35 -19 -19 -15 -35 -24
-35 -21 0 4 -17 -6 -37 -22 -21 -16 -49 -35 -63 -42 -52 -26 -86 -47 -121 -74
-20 -15 -40 -27 -44 -27 -4 0 -22 -11 -39 -24 -17 -13 -41 -26 -52 -30 -12 -3
-29 -15 -39 -26 -10 -11 -24 -20 -30 -20 -7 0 -33 -16 -58 -35 -25 -19 -49
-35 -53 -35 -3 0 -28 -16 -54 -35 -26 -19 -51 -35 -55 -35 -4 0 -29 -16 -55
-35 -26 -19 -51 -35 -54 -35 -4 0 -43 -27 -87 -60 -43 -34 -79 -58 -79 -55 0
10 -162 -115 -196 -151 -18 -18 -29 -35 -26 -38 3 -3 0 -6 -7 -6 -7 0 -9 -4
-6 -10 3 -5 1 -10 -5 -10 -6 0 -9 -4 -6 -9 3 -5 0 -24 -7 -42 -19 -48 -13 -93
18 -133 23 -31 101 -74 112 -62 3 2 22 -2 43 -9 21 -7 40 -11 43 -8 3 2 14 0
24 -6 11 -5 41 -12 68 -16 26 -3 51 -7 54 -10 8 -4 96 -16 166 -21 112 -8 364
-1 405 11 8 3 38 7 65 10 62 7 111 14 150 20 17 2 50 7 75 11 25 3 56 7 70 9
115 16 130 16 130 -2 3 -76 17 -273 24 -328 2 -16 7 -50 10 -75 3 -25 8 -65
12 -90 3 -25 7 -65 9 -90 2 -25 6 -55 9 -68 3 -12 8 -59 11 -104 4 -46 8 -85
10 -88 5 -8 21 -117 29 -190 2 -20 6 -44 9 -55 4 -11 9 -36 12 -55 3 -19 10
-48 15 -65 9 -29 17 -77 25 -140 2 -16 6 -41 9 -55 2 -14 7 -43 10 -65 3 -22
7 -50 10 -61 7 -34 17 -95 22 -139 7 -65 9 -71 28 -99 24 -38 90 -66 142 -60
74 7 110 29 135 81 22 48 86 154 98 163 7 5 137 276 169 352 11 25 18 49 14
52 -3 3 0 6 7 6 7 0 10 4 7 8 -5 9 38 138 77 228 14 32 29 70 32 84 4 14 28
72 55 130 101 220 183 405 183 418 0 6 4 12 9 12 5 0 6 5 3 10 -3 6 -1 10 5
10 6 0 8 5 5 10 -3 6 -1 10 5 10 6 0 9 4 6 9 -3 5 12 47 34 94 22 47 40 90 40
95 0 6 18 51 39 101 21 49 36 92 33 95 -3 3 0 6 7 6 7 0 9 5 6 10 -3 6 -1 10
5 10 6 0 9 4 6 9 -3 5 12 47 34 94 22 47 40 90 40 95 0 6 18 51 39 101 21 49
36 92 33 95 -3 3 0 6 7 6 7 0 9 5 6 10 -3 6 -1 10 5 10 6 0 9 4 5 10 -3 5 7
35 23 67 16 32 39 90 52 128 13 39 31 87 42 108 10 21 16 42 13 47 -3 6 -1 10
4 10 6 0 10 3 9 8 -4 12 41 122 82 202 47 92 125 281 124 298 -1 6 3 12 9 12
6 0 8 3 4 6 -3 4 2 23 12 43 19 37 36 90 33 104 -1 4 3 7 9 7 5 0 8 3 5 8 -2
4 11 52 30 107 19 55 37 112 39 127 3 15 32 82 65 148 73 145 78 187 35 250
-15 22 -31 37 -36 34 -5 -3 -9 -1 -9 3 0 15 -102 68 -112 58z"/>
<path d="M3387 25401 c-14 -9 -34 -26 -44 -38 -47 -55 -52 -63 -45 -63 4 0 1
-4 -6 -9 -23 -14 -14 -130 15 -215 9 -28 18 -53 18 -56 10 -37 170 -353 209
-412 10 -16 16 -28 12 -28 -3 0 10 -25 29 -55 19 -30 35 -59 35 -65 0 -6 14
-31 30 -55 17 -24 30 -49 30 -55 0 -6 16 -36 35 -66 19 -30 35 -59 35 -65 0
-6 8 -23 19 -37 10 -15 28 -47 39 -72 11 -25 29 -58 38 -75 17 -30 31 -57 44
-85 4 -8 15 -31 25 -50 10 -19 22 -43 27 -52 4 -10 13 -27 18 -38 6 -11 14
-28 18 -37 5 -10 17 -31 26 -48 23 -42 68 -137 72 -152 1 -7 12 -26 24 -43 12
-17 23 -36 24 -43 4 -20 87 -190 108 -219 11 -16 17 -28 14 -28 -3 0 13 -35
35 -77 21 -43 39 -81 39 -86 0 -5 9 -22 21 -38 11 -16 22 -36 23 -43 1 -7 9
-25 19 -39 9 -15 17 -31 17 -37 0 -6 11 -28 25 -50 14 -22 25 -45 25 -52 0 -7
9 -24 20 -38 11 -14 20 -31 20 -38 0 -8 8 -26 18 -40 18 -26 76 -142 77 -152
0 -3 10 -21 23 -41 12 -20 22 -40 22 -44 0 -4 14 -30 30 -57 17 -26 30 -53 30
-59 0 -6 14 -30 30 -54 17 -24 30 -48 30 -54 0 -6 14 -33 30 -59 17 -27 30
-53 30 -57 0 -4 18 -36 40 -71 22 -35 40 -68 40 -74 0 -5 5 -10 10 -10 6 0 10
-7 10 -15 0 -21 127 -218 148 -229 9 -5 19 -13 22 -17 9 -14 110 -49 141 -49
32 0 92 35 115 68 7 11 17 37 20 59 3 21 9 40 13 43 3 3 6 10 7 15 1 10 36
128 61 205 8 25 17 69 19 99 3 30 7 58 10 63 17 28 23 346 10 558 -4 58 -9
150 -11 205 l-4 100 247 1 c247 1 572 10 667 19 28 2 91 7 140 10 107 6 162
12 193 20 12 3 62 8 110 11 48 3 112 7 142 9 30 2 104 7 165 10 111 5 137 14
178 56 10 11 14 19 10 19 -4 0 -2 4 5 9 18 11 22 98 6 143 -15 44 -42 73 -86
91 -18 8 -45 26 -60 40 -16 14 -28 23 -28 20 0 -3 -11 6 -24 20 -13 14 -38 33
-57 42 -19 10 -36 21 -39 25 -3 4 -21 15 -40 25 -19 10 -37 21 -40 25 -7 11
-94 54 -102 52 -5 -1 -8 2 -8 7 0 5 -20 17 -45 27 -25 9 -45 21 -45 26 0 6 -7
8 -15 4 -8 -3 -15 -2 -15 2 0 5 -24 17 -52 27 -29 10 -89 37 -133 60 -79 41
-166 78 -174 75 -2 -1 -7 2 -10 7 -6 9 -123 80 -196 118 -22 12 -62 35 -90 50
-51 29 -192 103 -257 136 -20 11 -42 19 -48 19 -5 0 -10 5 -10 11 0 5 -4 7
-10 4 -5 -3 -10 -2 -10 4 0 5 -16 15 -35 21 -19 6 -35 16 -35 21 0 5 -3 8 -7
7 -10 -2 -161 71 -168 81 -2 4 -22 13 -44 21 -23 7 -41 17 -41 22 0 5 -4 7 -9
4 -5 -4 -11 -3 -13 1 -1 5 -57 35 -123 68 -66 33 -123 64 -126 69 -4 5 -12 5
-18 2 -6 -4 -11 -3 -11 3 0 5 -16 15 -35 21 -19 6 -35 16 -35 21 0 5 -3 8 -7
7 -5 -1 -37 13 -73 32 -36 19 -68 33 -72 32 -5 -1 -8 3 -8 8 0 6 -5 10 -10 10
-6 0 -41 14 -78 32 -37 17 -70 30 -74 30 -5 -1 -8 3 -8 8 0 6 -6 10 -13 10 -7
0 -39 13 -70 29 -31 16 -59 26 -62 23 -3 -3 -5 -1 -5 5 0 5 -12 15 -27 22 -32
14 -105 62 -114 74 -3 5 -9 9 -12 8 -12 0 -82 31 -97 43 -8 7 -44 25 -80 41
-36 15 -68 33 -72 39 -4 6 -8 7 -8 2 0 -5 -6 -4 -13 2 -7 6 -56 28 -108 48
-52 20 -103 41 -114 47 -11 6 -23 10 -27 9 -5 -1 -8 2 -8 6 0 5 -31 19 -70 31
-38 13 -79 31 -90 41 -11 10 -34 23 -50 30 -17 7 -30 17 -30 22 0 5 -4 6 -10
3 -5 -3 -10 -2 -10 2 0 5 -21 20 -47 33 -59 30 -131 34 -166 11z"/>
<path d="M11940 24359 c-190 -6 -253 -11 -330 -29 -52 -12 -126 -26 -165 -30
-64 -8 -72 -11 -107 -49 -35 -37 -38 -45 -38 -99 0 -67 -34 -5 349 -643 140
-233 290 -485 334 -559 44 -74 119 -196 167 -270 48 -74 106 -168 129 -208 23
-40 55 -87 70 -105 15 -18 47 -58 71 -90 51 -69 82 -87 148 -87 61 0 109 30
136 83 21 45 24 109 14 362 -4 99 -12 349 -18 555 -6 206 -15 464 -20 573 -6
131 -5 208 2 227 5 16 8 83 6 149 -3 117 -4 120 -33 151 -16 18 -51 42 -76 55
-43 22 -55 23 -225 22 -98 -1 -285 -5 -414 -8z"/>
<path d="M18324 24305 c-189 -41 -428 -143 -624 -266 -63 -39 -171 -100 -240
-134 -333 -166 -724 -448 -1184 -854 -178 -157 -535 -514 -652 -651 -161 -189
-465 -601 -571 -772 -20 -32 -41 -58 -47 -58 -6 0 -58 7 -116 16 -58 8 -199
17 -315 21 -794 23 -1849 -172 -2612 -482 -346 -141 -804 -400 -1028 -580 -55
-45 -134 -107 -176 -138 l-76 -57 -64 29 c-35 16 -107 41 -159 55 -52 15 -144
45 -205 68 -616 226 -1083 339 -1560 378 -321 26 -1194 2 -1630 -45 -126 -14
-313 -30 -415 -35 -234 -13 -382 -31 -618 -76 -103 -19 -217 -39 -254 -44
-149 -21 -190 -64 -301 -320 -60 -140 -81 -205 -128 -403 -53 -227 -67 -325
-81 -575 -14 -252 -3 -509 37 -811 30 -225 37 -266 112 -581 157 -668 409
-1349 713 -1925 49 -93 149 -287 221 -430 202 -399 336 -626 547 -927 257
-366 310 -439 395 -551 50 -65 131 -165 181 -221 l91 -102 28 -265 c46 -430
64 -561 97 -685 49 -183 97 -260 188 -300 29 -13 58 -24 64 -24 6 0 43 -15 83
-34 39 -18 104 -41 145 -51 41 -9 192 -50 335 -90 143 -40 306 -83 362 -96 57
-13 103 -27 103 -30 0 -3 -71 -32 -157 -64 -280 -103 -436 -166 -511 -206 -41
-21 -86 -39 -102 -39 -43 0 -74 -15 -121 -57 -66 -60 -89 -119 -89 -235 0 -76
5 -109 22 -155 41 -107 136 -177 282 -207 42 -9 116 -28 164 -43 78 -24 102
-27 237 -26 83 0 203 8 270 17 66 9 212 21 325 26 372 16 555 22 550 17 -3 -2
-63 -51 -135 -107 -191 -152 -337 -283 -401 -362 -32 -38 -103 -115 -158 -171
-132 -133 -157 -182 -164 -315 -3 -83 -1 -105 18 -152 24 -62 113 -184 170
-233 20 -18 60 -67 89 -109 110 -166 310 -384 535 -586 71 -64 173 -157 225
-205 53 -49 155 -133 226 -187 319 -240 590 -378 1065 -541 124 -42 264 -93
312 -113 158 -66 609 -172 921 -215 81 -12 243 -39 360 -60 290 -54 461 -71
701 -71 290 1 508 24 836 90 80 16 194 34 253 39 59 6 169 22 245 35 75 13
174 29 220 36 45 6 147 27 225 46 78 20 219 49 312 65 600 105 1023 233 1395
422 85 43 265 134 400 202 274 139 544 290 790 445 91 56 237 147 324 202 88
54 203 130 257 168 152 109 465 359 567 454 51 48 117 102 145 120 29 19 81
57 117 86 85 67 412 391 461 455 21 27 79 88 129 133 50 46 117 118 149 161
32 42 112 133 177 203 105 111 134 150 244 329 118 194 155 250 260 399 202
286 364 587 541 1003 33 79 73 155 92 177 90 106 225 444 214 538 -4 36 -14
53 -53 94 -27 27 -61 56 -75 63 -56 30 -496 121 -654 135 -55 5 -194 23 -310
40 -115 17 -331 46 -479 65 -149 20 -271 37 -272 38 -1 1 70 33 159 71 89 38
293 126 452 196 402 177 488 211 745 300 412 143 457 161 500 197 22 19 46 44
52 56 22 41 44 198 72 512 9 99 21 216 27 260 5 44 12 141 15 215 5 133 5 136
-23 190 -33 64 -60 86 -133 105 -81 22 -185 18 -469 -15 -141 -16 -301 -35
-356 -40 -182 -19 -280 -30 -310 -35 -35 -5 -43 -13 220 220 160 141 260 241
290 290 11 17 35 48 55 71 67 74 62 153 -15 235 -29 31 -45 57 -45 74 0 50
-33 103 -237 373 l-206 273 12 92 c7 51 21 187 32 302 10 116 27 291 36 390
14 153 17 312 17 1060 l1 880 -28 200 c-15 110 -38 247 -52 305 -13 58 -38
176 -55 262 -45 231 -135 544 -206 716 -19 45 -59 133 -90 193 -30 61 -87 184
-125 272 -75 174 -140 299 -199 387 -20 30 -54 88 -74 129 -47 94 -92 161
-153 231 -27 30 -88 114 -135 185 -109 165 -186 265 -296 385 -181 197 -362
346 -542 446 -47 26 -118 69 -159 96 -88 58 -198 94 -333 110 -54 7 -98 16
-98 20 0 12 -66 8 -136 -7z m605 -1644 c372 -565 609 -1033 776 -1533 142
-426 156 -488 229 -1014 75 -529 103 -795 112 -1059 l7 -170 -34 31 c-47 44
-190 147 -419 304 -107 73 -196 134 -197 134 -1 1 41 35 93 76 182 141 239
228 238 365 0 72 -3 86 -34 140 -35 61 -127 157 -190 199 -238 156 -525 306
-977 512 -508 232 -640 253 -756 124 -69 -76 -90 -141 -95 -292 -2 -75 0 -140
6 -158 6 -16 7 -30 2 -30 -5 0 -111 51 -237 113 -318 158 -632 287 -697 287
-46 0 -50 -9 134 295 54 88 121 198 150 245 302 485 647 899 1125 1348 121
114 287 272 368 351 l149 145 49 -94 c27 -52 116 -195 198 -319z m-12369
-2981 c40 -11 177 -38 230 -46 31 -4 159 -27 215 -38 11 -2 45 -7 75 -11 30
-3 71 -11 90 -15 19 -5 51 -12 70 -15 19 -3 49 -10 67 -14 17 -5 34 -7 37 -4
3 3 25 1 48 -5 24 -6 59 -14 78 -17 19 -3 53 -12 76 -20 22 -7 59 -16 81 -20
23 -3 65 -13 95 -21 29 -8 66 -17 82 -19 16 -3 80 -21 142 -41 62 -19 124 -37
138 -40 70 -12 546 -190 558 -209 4 -5 8 -6 8 0 0 5 5 4 12 -3 7 -7 20 -12 30
-12 10 0 18 -5 18 -11 0 -6 6 -9 14 -6 8 3 16 3 18 -1 2 -4 32 -20 68 -36 36
-16 90 -41 120 -55 30 -14 58 -24 63 -23 4 1 7 -2 7 -7 0 -4 21 -16 48 -26 26
-10 71 -31 100 -47 28 -16 52 -25 52 -21 0 4 4 3 8 -2 4 -6 27 -19 52 -30 25
-10 57 -27 72 -37 14 -10 31 -18 37 -18 20 0 11 -27 -14 -40 -14 -7 -25 -17
-25 -22 0 -4 -9 -17 -20 -28 -11 -11 -17 -20 -14 -20 3 0 -1 -6 -8 -14 -23
-24 -42 -50 -83 -111 -22 -33 -48 -68 -57 -79 -10 -11 -20 -28 -24 -38 -3 -10
-9 -18 -13 -18 -4 0 -18 -22 -31 -50 -13 -27 -27 -50 -30 -50 -4 0 -13 -13
-20 -30 -7 -16 -17 -30 -22 -30 -5 0 -6 -4 -3 -10 3 -5 1 -10 -5 -10 -6 0 -9
-4 -6 -9 4 -5 2 -11 -2 -13 -5 -1 -31 -43 -57 -93 -27 -49 -54 -95 -60 -101
-6 -6 -19 -30 -29 -53 -11 -22 -23 -41 -28 -41 -5 0 -7 -4 -4 -9 3 -5 -1 -11
-9 -15 -8 -3 -14 -2 -14 2 1 4 0 10 -1 15 -1 4 -3 12 -4 18 -3 26 -133 207
-168 234 -21 17 -45 36 -53 43 -8 8 -39 22 -68 32 -115 41 -241 -2 -312 -104
-11 -16 -34 -44 -52 -63 -18 -18 -29 -33 -25 -33 4 0 2 -4 -4 -8 -6 -4 -27
-32 -47 -62 -20 -30 -42 -61 -47 -67 -6 -7 -7 -13 -3 -13 4 0 4 -4 -2 -8 -15
-11 -50 -63 -75 -112 -12 -25 -26 -47 -29 -50 -4 -3 -18 -23 -31 -45 -13 -22
-27 -42 -31 -45 -3 -3 -17 -25 -29 -50 -25 -49 -60 -101 -75 -112 -7 -5 -7 -8
0 -8 6 0 6 -3 -1 -8 -6 -4 -34 -50 -63 -102 -67 -121 -97 -172 -110 -186 -5
-7 -7 -15 -4 -18 4 -3 -1 -14 -9 -23 -19 -22 -103 -195 -100 -205 1 -5 -2 -8
-8 -8 -5 0 -10 -6 -10 -14 0 -8 -13 -40 -30 -71 -16 -31 -30 -63 -30 -71 0 -8
-4 -14 -8 -14 -4 0 -9 -11 -10 -24 -1 -13 -8 -44 -16 -68 -18 -52 -16 -202 2
-235 7 -13 10 -23 7 -23 -10 0 37 -63 69 -93 41 -38 113 -80 125 -73 5 3 11 2
13 -4 2 -6 21 -13 43 -15 22 -3 47 -7 55 -10 8 -2 49 -7 90 -10 149 -12 145
-11 142 -31 -2 -11 -8 -22 -14 -25 -5 -3 -9 -9 -9 -13 2 -18 -13 -66 -20 -66
-5 0 -8 -3 -7 -7 0 -5 -2 -16 -5 -25 -4 -10 -10 -26 -14 -35 -3 -10 -5 -21 -5
-25 1 -5 -3 -8 -8 -8 -6 0 -10 -5 -10 -11 0 -6 -6 -25 -14 -42 -57 -133 -153
-395 -159 -435 -2 -12 -6 -24 -9 -27 -5 -6 -116 157 -120 177 -2 7 -20 39 -40
70 -21 31 -38 62 -38 68 0 6 -12 30 -27 53 -16 23 -29 48 -31 56 -1 7 -14 29
-27 49 -14 20 -25 40 -25 45 0 4 -8 19 -17 34 -10 14 -18 31 -19 38 -1 7 -10
25 -20 40 -10 15 -19 34 -20 41 -1 7 -12 27 -24 44 -12 16 -19 30 -15 30 3 0
-10 29 -30 65 -19 36 -32 65 -29 65 3 0 -4 13 -15 29 -12 16 -21 33 -21 39 0
10 -47 101 -62 120 -6 6 -7 12 -4 12 4 0 0 12 -8 28 -27 51 -98 204 -111 243
-11 31 -46 99 -73 144 -4 6 -7 15 -9 20 -1 6 -17 55 -36 110 -19 55 -47 145
-62 200 -15 55 -31 109 -35 120 -14 38 -63 220 -66 245 -1 14 -3 26 -4 28 -1
1 -4 7 -5 12 -1 6 -4 12 -5 15 -3 7 -5 13 -15 70 -9 53 -11 62 -15 70 -1 3 -4
14 -5 25 -1 11 -4 22 -5 25 -1 3 -3 13 -4 23 -1 9 -5 31 -9 47 -7 27 -12 59
-22 145 -2 14 -4 25 -5 25 -1 0 -4 16 -6 35 -1 19 -5 55 -8 80 -13 128 -18
180 -21 225 -2 28 -6 78 -10 113 -12 108 -15 168 -19 527 -5 344 -10 459 -22
542 l-6 41 44 -4 c24 -3 59 -9 78 -14z m11567 -1654 c18 -8 46 -17 63 -21 16
-4 30 -11 30 -16 0 -6 4 -8 8 -5 5 3 19 -1 33 -8 13 -7 29 -13 34 -14 23 -5
53 -16 95 -34 24 -11 50 -21 57 -22 7 -1 16 -5 19 -9 4 -4 15 -7 24 -7 10 0
23 -7 30 -15 7 -9 15 -13 18 -10 3 3 14 -2 24 -12 10 -9 18 -13 18 -8 0 4 7 2
15 -5 8 -7 15 -10 15 -6 0 5 23 -6 86 -43 11 -6 30 -16 44 -21 40 -17 72 -37
81 -52 7 -11 9 -10 9 1 0 11 6 8 20 -7 12 -12 30 -22 40 -22 11 0 20 -4 20
-10 0 -5 6 -10 14 -10 8 0 21 -6 28 -14 8 -7 24 -17 37 -21 13 -4 32 -16 42
-26 10 -10 25 -19 33 -19 8 0 16 -7 20 -15 3 -8 15 -15 26 -15 11 0 20 -7 20
-15 0 -8 4 -15 9 -15 5 0 35 -25 66 -55 30 -30 60 -55 65 -55 6 0 10 -7 10
-15 0 -8 4 -15 10 -15 9 0 100 -86 100 -95 0 -12 45 -101 53 -106 5 -4 6 -12
3 -18 -4 -6 -2 -11 4 -11 7 0 10 -7 6 -15 -3 -8 -1 -15 5 -15 6 0 9 -7 5 -15
-3 -8 -1 -15 4 -15 5 0 8 -8 8 -17 -1 -10 2 -36 6 -58 17 -91 30 -392 17 -400
-4 -2 -6 -24 -6 -49 1 -27 -4 -47 -11 -50 -7 -3 -10 -14 -7 -25 3 -12 1 -21
-6 -21 -5 0 -8 -7 -5 -15 4 -8 2 -15 -3 -15 -5 0 -10 -7 -11 -15 -1 -8 -3 -22
-4 -30 -1 -8 -5 -15 -10 -15 -4 0 -8 -9 -8 -20 0 -11 -3 -20 -7 -20 -5 0 -17
-19 -28 -43 -11 -23 -28 -51 -37 -61 -10 -10 -15 -23 -12 -28 3 -4 -2 -8 -11
-8 -9 0 -15 -6 -12 -12 4 -13 -58 -78 -75 -78 -5 0 -7 -4 -3 -9 3 -5 -1 -16
-9 -24 -8 -8 -13 -17 -10 -20 3 -3 -3 -12 -15 -19 -12 -7 -21 -16 -21 -21 0
-4 -18 -25 -40 -47 -22 -22 -40 -43 -40 -47 0 -4 -14 -17 -30 -28 -16 -11 -30
-26 -30 -32 0 -7 -4 -13 -10 -13 -5 0 -18 -8 -28 -17 -29 -28 -80 -66 -124
-91 -22 -13 -47 -30 -55 -38 -8 -8 -21 -14 -29 -14 -8 0 -17 -6 -20 -14 -3 -8
-12 -12 -20 -9 -8 3 -14 0 -14 -7 0 -7 -7 -10 -15 -6 -8 3 -15 1 -15 -5 0 -6
-7 -9 -15 -5 -8 3 -15 2 -15 -3 0 -5 -11 -12 -25 -15 -13 -3 -34 -10 -47 -15
-13 -5 -26 -8 -29 -7 -3 0 -13 -5 -22 -12 -9 -8 -21 -11 -27 -7 -5 3 -10 2
-10 -4 0 -6 -7 -8 -15 -5 -8 4 -15 2 -15 -2 0 -5 -10 -10 -23 -11 -12 0 -35
-7 -52 -14 -16 -6 -39 -13 -50 -15 -34 -5 -49 -9 -62 -17 -7 -5 -17 -5 -23 -2
-5 3 -10 2 -10 -4 0 -6 -7 -8 -15 -5 -8 4 -15 2 -15 -3 0 -5 -8 -9 -17 -10
-55 -5 -73 -9 -73 -16 0 -5 -6 -5 -12 -1 -13 8 -17 9 -83 14 -22 2 -45 8 -52
13 -7 5 -17 6 -22 3 -5 -4 -13 -1 -16 5 -4 5 -13 8 -21 5 -8 -3 -14 -2 -14 3
0 5 -16 12 -35 15 -19 4 -35 11 -35 15 0 5 -10 12 -22 16 -13 4 -25 9 -28 10
-3 1 -15 6 -27 10 -13 4 -23 12 -23 17 0 6 -6 8 -14 5 -8 -3 -16 -2 -18 2 -4
9 -88 66 -110 74 -10 4 -18 11 -18 17 0 5 -6 10 -13 10 -7 0 -26 13 -43 28
-17 15 -36 26 -42 24 -7 -2 -12 4 -12 14 0 9 -3 14 -6 11 -4 -4 -19 4 -34 16
-15 12 -42 33 -60 47 -17 14 -46 37 -63 52 -18 15 -35 28 -39 28 -5 0 -8 7 -8
16 0 10 -6 14 -15 10 -8 -3 -15 -1 -15 5 0 5 -22 32 -50 60 -27 28 -50 54 -50
59 0 5 -9 12 -20 15 -11 3 -20 11 -20 17 0 15 -85 98 -99 98 -8 0 -7 5 3 15 8
8 19 15 25 15 6 0 11 5 11 11 0 5 4 8 8 5 4 -2 50 36 102 85 52 49 98 89 103
89 4 0 6 4 3 8 -3 5 4 15 15 22 10 8 19 18 19 23 0 4 14 21 30 37 17 16 30 33
30 37 0 5 9 14 20 21 12 7 18 17 15 22 -3 6 -1 10 4 10 6 0 11 7 11 15 0 8 7
15 15 15 8 0 15 7 15 15 0 9 6 18 14 21 8 3 20 19 26 35 7 16 19 29 27 29 8 0
12 4 8 9 -3 5 -1 12 5 16 6 4 8 11 5 16 -4 5 0 9 7 9 8 0 19 12 25 28 7 15 29
55 50 88 39 64 72 121 73 129 1 2 7 17 15 32 8 14 12 30 9 35 -3 4 2 8 12 8
11 0 15 6 11 20 -3 11 -2 20 2 20 9 0 51 86 51 105 0 8 5 15 10 15 6 0 10 9
10 20 0 11 5 20 11 20 5 0 7 5 4 10 -3 6 -1 10 5 10 7 0 9 8 5 19 -3 12 0 21
10 25 9 3 14 10 10 15 -3 5 -1 12 5 16 6 4 8 10 5 15 -3 5 -1 11 5 15 5 3 10
15 10 26 0 10 4 19 10 19 5 0 7 7 4 15 -4 8 -1 15 6 15 7 0 10 7 6 15 -3 8 -1
15 4 15 4 0 12 15 15 33 4 17 10 37 13 42 4 6 7 16 9 24 1 8 8 18 15 22 7 5 9
9 4 9 -5 0 -3 6 3 13 6 8 8 17 5 20 -3 3 -2 12 2 19 5 7 9 15 10 18 0 3 3 12
6 20 19 51 30 101 25 106 -3 4 -2 15 4 26 6 11 12 34 13 51 1 18 5 37 9 44 4
6 3 14 -1 17 -5 3 -7 16 -5 30 5 22 7 23 31 10 15 -7 42 -20 59 -28z m-8020
-2452 c193 -166 680 -435 1008 -556 231 -85 629 -158 771 -142 l53 7 -9 -34
c-4 -19 -11 -79 -15 -134 -23 -358 -152 -782 -300 -990 -74 -104 -110 -130
-256 -194 -388 -168 -589 -212 -839 -182 -120 15 -242 39 -255 52 -5 5 -26 9
-47 9 -50 0 -213 59 -307 112 -108 61 -240 194 -330 333 -93 142 -115 189
-146 308 l-26 98 26 171 c25 172 59 291 115 413 15 33 33 76 40 95 33 87 177
361 279 529 61 101 114 194 117 208 6 23 7 23 35 -15 15 -21 54 -60 86 -88z
m4578 -958 c145 -34 361 -96 590 -170 188 -60 368 -106 520 -130 89 -15 279
-54 420 -87 27 -7 73 -22 102 -35 29 -13 71 -27 93 -30 l39 -6 -6 -47 c-4 -25
-17 -67 -30 -92 -13 -26 -23 -51 -23 -57 0 -5 -16 -24 -35 -41 -32 -27 -43
-31 -97 -31 -120 0 -416 63 -823 175 -88 24 -187 46 -220 50 -33 4 -102 15
-154 26 -51 10 -124 19 -163 19 -38 0 -100 5 -137 11 l-68 11 -79 -43 c-111
-60 -148 -86 -320 -225 -126 -103 -167 -143 -255 -252 -57 -72 -116 -138 -130
-148 -15 -10 -46 -47 -70 -82 -93 -138 -140 -182 -197 -182 -69 0 -132 60
-132 126 0 36 121 235 229 376 39 51 133 174 208 273 75 99 194 243 264 320
121 131 150 167 193 238 22 35 91 69 131 64 17 -2 84 -16 150 -31z"/>
<path d="M13522 24041 c-52 -7 -69 -14 -97 -41 -41 -40 -50 -64 -69 -195 -33
-214 -38 -316 -42 -764 -3 -429 -2 -472 16 -574 21 -116 39 -153 100 -212 25
-24 41 -30 94 -33 59 -4 65 -2 99 27 19 18 50 57 67 89 18 31 54 86 80 122 26
36 91 139 145 230 151 256 328 539 453 725 105 156 115 174 125 235 13 87 3
136 -36 175 -27 26 -51 36 -152 59 -66 16 -205 52 -310 81 -296 82 -350 90
-473 76z"/>
<path d="M10305 23829 c-17 -4 -46 -25 -65 -44 l-35 -36 -3 -122 c-4 -118 4
-196 44 -447 23 -142 80 -445 119 -625 37 -176 60 -295 74 -396 5 -37 17 -79
27 -94 19 -30 99 -83 159 -107 57 -22 287 -72 530 -113 426 -74 503 -85 620
-91 108 -6 125 -5 167 14 58 25 76 53 89 135 19 120 22 115 -277 410 -525 518
-904 955 -1102 1270 -98 157 -153 224 -198 243 -37 15 -103 17 -149 3z"/>
<path d="M24373 22559 c-50 -4 -113 -14 -140 -22 -26 -8 -65 -18 -87 -22 -41
-7 -281 -124 -332 -162 -17 -13 -36 -23 -43 -23 -6 0 -41 -29 -77 -65 -36 -36
-67 -65 -70 -65 -21 0 -334 -285 -357 -325 -7 -12 -28 -44 -49 -71 -45 -61
-133 -228 -142 -271 -4 -17 -13 -37 -21 -43 -40 -33 -102 -256 -115 -410 -8
-99 2 -258 19 -303 6 -14 17 -87 26 -161 12 -105 28 -176 71 -318 31 -101 69
-210 85 -242 l30 -59 -48 -50 c-61 -64 -86 -86 -96 -87 -5 0 -46 -37 -90 -83
-45 -46 -107 -100 -138 -120 -52 -34 -82 -59 -164 -137 -17 -16 -42 -31 -55
-35 -14 -3 -56 -36 -95 -72 -38 -36 -100 -85 -138 -110 -37 -25 -70 -50 -75
-57 -4 -7 -80 -72 -169 -144 -90 -73 -163 -137 -163 -142 0 -6 -4 -10 -10 -10
-5 0 -20 -10 -33 -22 -37 -36 -187 -171 -237 -214 -187 -161 -268 -245 -305
-316 -33 -61 -39 -85 -43 -149 -4 -67 -1 -84 21 -132 13 -30 40 -72 59 -93 19
-22 72 -88 118 -149 149 -194 271 -336 440 -510 91 -93 179 -187 194 -209 16
-21 51 -52 78 -69 26 -16 48 -34 48 -39 0 -20 224 -232 294 -278 95 -63 160
-84 231 -77 75 8 142 50 318 203 45 38 93 78 106 87 14 9 100 89 191 177 92
89 180 171 196 183 53 40 85 72 122 120 20 26 42 47 48 47 7 0 41 34 75 75 35
41 67 75 72 75 9 0 407 399 569 571 l107 114 93 -47 c51 -27 100 -52 108 -56
48 -27 188 -92 198 -92 7 0 52 -16 100 -36 203 -83 404 -144 522 -158 72 -9
189 -35 217 -48 12 -6 90 -11 185 -10 148 0 171 2 248 27 47 14 105 30 130 34
42 7 89 26 100 41 5 6 169 74 180 75 3 0 30 16 60 35 30 19 66 40 80 48 14 7
39 26 55 41 17 16 35 30 41 32 18 6 154 136 154 147 0 5 16 22 35 36 19 15 35
33 35 40 0 7 14 26 30 42 105 101 150 148 150 157 0 11 60 89 96 125 13 12 28
39 33 60 6 20 17 47 26 59 8 12 25 52 36 89 11 37 29 79 40 93 11 15 26 62 35
106 8 44 22 111 30 149 11 49 14 93 10 155 -4 47 -8 113 -11 146 -2 33 -11
105 -20 160 -10 55 -17 107 -17 115 1 36 -22 128 -49 194 -15 39 -30 81 -32
93 -2 12 -10 30 -18 40 -9 10 -27 38 -42 63 -14 25 -44 65 -66 90 -23 25 -58
74 -78 109 -35 58 -53 75 -138 128 -39 25 -115 63 -124 63 -5 0 -32 16 -61 35
-29 19 -57 35 -64 35 -6 0 -38 11 -71 25 -33 13 -72 25 -87 25 -16 0 -28 4
-28 9 0 9 -118 35 -235 50 -99 13 -408 15 -495 3 -36 -5 -69 -6 -74 -2 -5 5
-4 50 3 103 14 119 14 400 1 487 -11 68 -34 177 -52 245 -5 22 -31 83 -58 135
-26 52 -55 118 -64 145 -9 28 -29 71 -44 96 -29 50 -185 192 -270 246 -28 18
-67 47 -86 64 -35 31 -159 92 -211 105 -17 4 -34 10 -40 14 -5 4 -41 16 -80
28 -61 18 -103 21 -310 25 -132 2 -281 0 -332 -4z"/>
<path d="M4275 20068 c-33 -3 -100 -9 -150 -12 -49 -4 -126 -9 -170 -12 -44
-3 -240 -8 -435 -10 -364 -4 -485 -7 -695 -19 -66 -3 -169 -8 -230 -10 -98 -3
-275 -11 -465 -20 -36 -2 -65 -4 -65 -5 0 -1 -29 -3 -65 -5 -36 -2 -65 -4 -65
-5 0 -1 -106 -3 -235 -5 -129 -1 -235 -3 -235 -4 0 -1 -40 -4 -90 -6 -99 -5
-154 -10 -200 -18 -16 -3 -68 -9 -115 -12 -46 -4 -93 -10 -105 -14 -11 -4 -33
-7 -50 -5 -49 4 -239 5 -258 1 -10 -2 -27 -11 -37 -20 -11 -9 -20 -13 -20 -9
-1 16 -34 -55 -45 -98 -16 -61 -11 -103 16 -148 22 -35 78 -101 107 -126 7 -6
29 -25 48 -43 20 -18 45 -35 55 -38 10 -4 19 -10 19 -15 0 -5 19 -19 42 -31
23 -12 48 -28 56 -36 8 -7 36 -25 62 -38 27 -14 51 -29 55 -35 4 -6 29 -22 56
-35 27 -14 49 -29 49 -33 0 -5 23 -19 51 -32 27 -13 53 -29 57 -36 4 -6 31
-23 60 -38 28 -14 52 -30 52 -34 0 -5 27 -21 60 -37 33 -16 60 -32 60 -37 0
-4 23 -19 50 -33 28 -14 50 -29 50 -33 0 -5 22 -19 50 -32 28 -13 50 -27 50
-31 0 -5 15 -16 33 -25 17 -9 35 -21 38 -27 4 -5 27 -21 52 -36 25 -14 98 -62
162 -106 130 -89 175 -120 226 -152 19 -12 41 -28 49 -36 8 -9 27 -21 43 -28
15 -7 27 -15 27 -19 0 -3 19 -17 43 -30 23 -13 44 -26 47 -30 3 -4 30 -23 60
-43 30 -20 63 -43 73 -52 10 -8 33 -23 52 -32 19 -9 35 -20 35 -25 0 -5 16
-16 35 -25 19 -9 35 -20 35 -25 0 -4 19 -17 41 -29 23 -11 51 -29 62 -40 12
-10 24 -19 28 -19 4 0 14 -6 21 -14 8 -7 28 -21 45 -29 17 -9 37 -23 45 -30 7
-7 32 -24 56 -37 23 -13 42 -27 42 -30 0 -4 18 -15 40 -25 22 -10 40 -22 40
-26 0 -5 22 -20 49 -34 27 -13 52 -29 56 -35 4 -6 29 -22 56 -35 27 -14 49
-29 49 -33 0 -5 23 -19 51 -32 27 -13 53 -29 57 -35 4 -6 43 -31 87 -55 44
-24 82 -47 85 -51 8 -12 209 -120 229 -124 21 -4 74 -8 81 -5 3 0 22 3 44 5
21 2 44 9 52 16 8 6 14 8 14 5 0 -13 27 19 43 50 21 40 26 82 15 119 -4 17
-11 44 -13 60 -6 34 -38 169 -62 263 -9 34 -19 62 -23 62 -4 0 -10 14 -14 30
-3 17 -17 55 -31 85 -14 31 -25 60 -25 65 0 6 -4 10 -10 10 -5 0 -10 7 -10 16
0 9 -20 50 -45 90 -24 41 -41 74 -37 74 4 0 2 4 -4 8 -7 4 -33 43 -60 87 -26
44 -52 82 -56 83 -4 2 -8 9 -8 16 0 11 -9 25 -50 73 -5 7 -10 16 -10 21 0 5
-9 19 -20 32 -11 13 -20 29 -20 37 0 7 -3 13 -7 13 -5 0 -16 14 -26 31 -17 30
-17 31 3 36 11 3 20 9 20 14 0 5 6 9 13 9 15 0 121 52 125 63 2 4 8 7 14 7 10
0 128 68 138 79 3 3 26 17 53 31 26 13 47 28 47 32 0 5 6 8 13 8 8 0 24 9 37
20 13 11 29 20 37 20 7 0 13 4 13 9 0 5 11 12 25 15 14 4 25 11 25 17 0 6 5 7
10 4 6 -3 10 -1 10 4 0 6 7 11 15 11 8 0 15 5 15 11 0 5 5 7 10 4 6 -3 10 -1
10 4 0 6 7 11 15 11 8 0 15 5 15 11 0 5 5 7 10 4 6 -3 10 -1 10 4 0 6 7 11 15
11 8 0 15 5 15 11 0 5 4 8 9 5 5 -4 11 -2 13 3 1 4 46 36 98 69 52 34 100 65
105 69 6 4 23 17 40 27 34 22 47 32 80 64 14 13 25 20 25 17 0 -3 10 3 21 14
12 11 36 27 54 35 18 9 38 22 45 31 7 8 17 15 22 15 8 0 67 38 78 51 3 3 20
14 38 24 17 11 32 23 32 27 0 4 6 8 13 8 6 0 33 14 59 30 105 66 110 184 11
270 -33 29 -36 30 -128 35 -38 3 -77 6 -85 8 -83 20 -363 29 -485 15z"/>
<path d="M24925 16896 c-92 -48 -125 -89 -125 -154 0 -56 7 -68 109 -186 47
-54 94 -109 105 -123 32 -42 198 -183 291 -248 80 -56 507 -305 523 -305 4 0
18 -9 31 -19 l23 -18 -65 -94 c-35 -52 -91 -139 -124 -194 -264 -444 -370
-632 -434 -771 -39 -84 -101 -201 -210 -395 -36 -63 -49 -97 -49 -126 0 -112
154 -195 251 -135 19 11 70 32 114 47 102 34 340 156 464 239 176 117 295 189
446 269 285 151 1174 671 1478 864 84 52 193 115 242 139 114 55 334 191 510
314 75 52 195 127 268 165 157 83 181 110 175 191 -3 28 -15 73 -29 100 -21
42 -33 54 -89 81 -130 66 -178 72 -855 123 -445 34 -710 60 -1385 134 -691 77
-1118 113 -1415 122 l-200 6 -50 -26z"/>
<path d="M2310 16189 c-19 -4 -71 -12 -115 -18 -90 -12 -129 -18 -165 -28 -14
-3 -38 -7 -53 -9 -16 -1 -56 -16 -91 -33 -34 -16 -74 -33 -88 -36 -15 -4 -32
-13 -39 -21 -6 -8 -17 -14 -24 -14 -7 0 -34 -17 -61 -39 -27 -21 -58 -41 -70
-45 -11 -3 -45 -30 -75 -59 -30 -28 -110 -94 -177 -146 -67 -52 -122 -97 -122
-100 0 -3 -11 -18 -24 -33 -14 -14 -22 -29 -19 -32 4 -3 0 -6 -7 -6 -7 0 -11
-3 -7 -6 3 -3 -3 -14 -14 -25 -11 -11 -17 -24 -14 -28 2 -5 -1 -11 -9 -14 -15
-6 -118 -201 -111 -209 3 -3 -1 -23 -9 -46 -8 -22 -12 -43 -9 -46 4 -3 1 -6
-6 -6 -7 0 -9 -4 -6 -10 3 -5 2 -10 -2 -10 -5 0 -10 -9 -11 -20 -1 -11 -3 -29
-4 -40 -1 -11 -5 -20 -8 -20 -4 0 -7 -6 -7 -12 -1 -23 -12 -82 -24 -138 -14
-62 -15 -109 -5 -160 8 -40 26 -100 35 -115 3 -5 6 -19 7 -30 1 -11 9 -54 18
-95 22 -95 24 -104 26 -107 2 -2 4 -7 5 -13 1 -5 4 -12 5 -15 1 -3 3 -9 4 -14
0 -5 4 -13 9 -17 10 -10 57 -110 57 -122 0 -5 7 -15 15 -22 9 -7 13 -15 11
-18 -3 -2 4 -16 14 -30 11 -13 20 -29 20 -33 0 -17 214 -284 282 -352 42 -43
65 -73 61 -82 -3 -8 -9 -15 -15 -15 -5 0 -25 -12 -44 -26 -19 -15 -34 -23 -34
-19 0 4 -14 -5 -31 -19 -17 -14 -37 -26 -45 -26 -7 0 -19 -9 -26 -20 -7 -11
-49 -48 -93 -82 -110 -84 -331 -309 -317 -323 3 -3 -6 -17 -21 -31 -15 -14
-36 -42 -47 -64 -11 -21 -31 -55 -45 -75 -13 -21 -27 -53 -31 -74 -4 -20 -15
-44 -25 -54 -18 -16 -23 -30 -20 -49 0 -5 -3 -8 -7 -8 -5 0 -9 -6 -9 -12 0 -7
-11 -35 -24 -63 -24 -50 -27 -92 -19 -255 1 -25 2 -74 2 -110 1 -118 3 -160 9
-160 8 0 27 -47 33 -80 3 -14 5 -26 7 -27 1 -2 3 -7 4 -13 1 -5 3 -11 4 -12 2
-2 4 -14 7 -27 2 -14 9 -30 14 -36 5 -7 8 -14 5 -17 -3 -3 1 -11 10 -18 8 -7
15 -19 15 -27 0 -7 6 -16 14 -19 12 -5 17 -14 30 -54 1 -3 8 -16 16 -30 9 -14
21 -34 27 -45 7 -11 22 -40 35 -65 12 -25 28 -52 35 -60 26 -29 78 -105 93
-133 8 -16 28 -41 45 -57 60 -57 85 -79 85 -75 0 2 19 -15 42 -38 49 -48 117
-97 136 -97 7 0 40 -18 72 -40 33 -22 72 -45 87 -51 15 -5 45 -22 65 -36 20
-14 52 -26 70 -28 36 -3 111 -22 143 -35 37 -16 68 -22 119 -25 73 -4 146 -16
146 -24 0 -4 20 -8 45 -8 25 0 51 -5 58 -11 6 -6 28 -10 47 -10 29 0 71 -4
149 -14 3 0 8 0 11 1 3 1 50 4 105 7 120 5 136 7 212 29 32 10 65 19 73 20 8
2 15 4 15 5 0 3 42 10 88 15 28 3 62 14 80 27 17 12 37 23 44 24 24 4 88 27
101 37 6 5 12 6 12 2 0 -5 9 0 20 10 11 10 20 14 20 10 0 -4 8 -1 18 7 9 9 27
19 40 23 13 4 21 9 18 12 -7 7 63 63 79 63 6 0 25 15 41 33 16 18 41 41 56 52
15 11 28 26 30 34 2 8 18 29 36 47 18 19 30 34 27 34 -3 0 25 32 64 70 38 39
67 70 65 70 -3 0 5 10 16 23 12 12 30 37 41 55 12 17 24 32 29 32 5 0 41 55
81 123 41 67 76 124 80 127 3 3 9 15 13 28 4 12 12 22 17 22 6 0 7 5 4 10 -3
6 -1 10 6 10 7 0 10 3 7 6 -3 3 5 17 19 32 24 26 70 120 65 135 -1 4 3 7 9 7
5 0 7 5 4 10 -3 6 -1 10 6 10 7 0 9 3 6 7 -4 3 1 11 9 18 9 6 18 23 19 36 2
14 21 62 44 107 45 89 42 88 132 73 30 -6 74 -12 99 -15 25 -3 68 -10 95 -16
28 -6 75 -13 105 -15 65 -5 106 -11 140 -20 14 -4 52 -8 85 -10 33 -2 78 -7
100 -10 22 -4 51 -8 65 -10 14 -1 36 -5 50 -9 14 -3 61 -8 105 -10 44 -2 91
-6 105 -10 69 -16 121 -23 126 -15 2 4 15 4 27 -1 22 -9 76 -20 132 -27 29 -3
78 -3 143 1 17 1 32 -1 32 -5 0 -3 6 -6 13 -6 6 -1 30 -3 52 -7 22 -3 79 -8
128 -11 48 -4 98 -9 110 -11 12 -3 81 -7 154 -9 73 -2 149 -9 169 -15 36 -12
117 -10 286 8 91 10 192 55 234 105 15 18 41 61 57 96 42 89 50 208 37 581 -5
162 -10 392 -10 510 0 118 -5 271 -11 340 -5 69 -13 195 -18 281 -9 163 -21
209 -72 281 -42 59 -160 114 -284 132 -57 9 -417 29 -560 32 -66 1 -203 5
-305 9 -192 7 -241 7 -350 5 -68 -2 -188 8 -201 16 -4 2 -10 0 -14 -6 -4 -6
-10 -8 -15 -5 -5 3 -11 1 -14 -4 -4 -5 -21 -7 -39 -5 -17 3 -108 7 -202 10
-93 2 -192 6 -220 9 -27 3 -84 7 -125 9 -86 4 -172 15 -179 22 -6 5 -10 25
-15 69 -3 24 -60 184 -111 310 -5 11 -9 23 -10 28 -2 4 -4 9 -5 12 -1 3 -3 8
-4 13 -6 24 -49 107 -72 137 -14 19 -23 35 -18 35 4 0 -2 10 -14 23 -11 12
-25 33 -31 47 -6 14 -15 32 -21 40 -5 8 -17 33 -26 55 -10 22 -34 62 -53 90
-20 27 -35 51 -33 53 3 3 -50 61 -120 131 -54 53 -108 101 -108 94 0 -2 -12 8
-27 22 -35 33 -160 98 -173 90 -6 -4 -10 -2 -10 4 0 14 -72 55 -151 87 -35 14
-66 29 -69 33 -3 3 -12 8 -20 9 -65 15 -137 36 -145 42 -9 7 -36 11 -195 26
-25 2 -106 7 -180 9 -165 6 -235 11 -246 17 -5 3 -25 1 -44 -3z"/>
<path d="M26685 13652 c-3 -3 -36 -4 -75 -3 -39 1 -94 -2 -123 -8 -28 -5 -76
-12 -105 -16 -30 -3 -63 -10 -74 -16 -11 -6 -41 -13 -67 -15 -44 -4 -86 -11
-86 -14 0 -1 -9 -3 -21 -5 -11 -3 -34 -11 -50 -20 -16 -8 -36 -15 -44 -15 -9
0 -22 -6 -29 -12 -6 -7 -15 -13 -19 -14 -4 0 -24 -8 -46 -17 -21 -9 -40 -17
-42 -17 -3 0 -27 -17 -55 -37 -28 -21 -55 -37 -59 -36 -5 2 -17 -7 -27 -20
-10 -12 -36 -35 -58 -52 -22 -16 -46 -38 -54 -49 -8 -11 -23 -28 -33 -38 -10
-10 -16 -18 -13 -18 3 0 -16 -20 -42 -45 -25 -25 -51 -45 -55 -45 -5 0 -6 -4
-3 -10 3 -5 1 -10 -4 -10 -21 0 -154 -143 -144 -154 4 -3 1 -6 -5 -6 -5 0 -20
-16 -32 -35 -12 -20 -29 -42 -37 -50 -8 -8 -12 -15 -9 -15 2 0 -4 -10 -15 -22
-10 -13 -30 -36 -44 -53 -14 -16 -42 -63 -63 -102 l-37 -73 -50 7 c-27 4 -60
7 -72 8 -13 0 -23 4 -23 8 0 5 -4 6 -8 3 -5 -3 -20 1 -34 8 -14 8 -44 14 -67
14 -22 0 -46 4 -53 8 -7 5 -36 9 -65 11 -29 1 -70 10 -90 19 -40 16 -42 17
-113 34 -25 6 -63 16 -85 22 -22 6 -49 10 -60 9 -11 -1 -30 7 -41 18 -12 10
-47 24 -80 29 -33 6 -75 13 -94 17 -19 3 -57 14 -85 25 -64 24 -95 33 -120 36
-26 2 -62 10 -104 23 -19 6 -38 8 -42 5 -5 -3 -9 0 -9 7 0 7 -3 10 -6 7 -3 -4
-20 -2 -37 4 -18 5 -39 11 -47 12 -8 1 -40 10 -70 19 -30 8 -71 18 -90 20 -19
3 -35 6 -35 7 0 1 -11 3 -25 5 -55 8 -116 22 -126 27 -6 4 -30 9 -55 12 -24 3
-111 19 -193 36 -154 31 -254 37 -318 20 -106 -30 -204 -147 -264 -315 -113
-316 -152 -445 -234 -770 -51 -198 -98 -378 -106 -400 -8 -22 -17 -53 -20 -70
-10 -66 -15 -112 -18 -156 -2 -26 -6 -52 -11 -58 -4 -7 -7 -36 -6 -64 1 -62 8
-172 11 -172 1 0 3 -11 6 -24 2 -14 9 -30 15 -38 6 -7 8 -13 5 -13 -13 0 42
-72 72 -94 17 -12 64 -33 104 -45 40 -13 87 -27 103 -33 17 -6 48 -13 70 -17
23 -4 45 -10 51 -13 6 -4 28 -9 51 -12 22 -2 56 -11 76 -19 19 -9 38 -13 41
-9 3 3 6 1 6 -4 0 -5 19 -9 43 -10 54 -1 138 -14 157 -24 8 -4 17 -8 20 -8 3
0 29 -3 59 -7 29 -4 68 -9 85 -10 17 -2 68 -13 113 -24 45 -12 113 -23 151
-25 39 -2 78 -9 89 -14 10 -6 57 -13 104 -16 46 -2 100 -9 119 -15 46 -15 71
-19 155 -27 88 -8 91 -8 140 -22 22 -6 78 -14 125 -18 47 -3 92 -10 101 -15
13 -7 175 -21 232 -20 9 0 17 -4 17 -8 0 -4 19 -8 43 -9 23 -1 56 -3 72 -6 17
-3 33 -5 37 -5 6 -1 13 -26 23 -91 3 -19 8 -43 11 -54 3 -10 6 -34 6 -55 0
-20 4 -41 8 -46 8 -9 19 -74 25 -147 1 -15 7 -33 13 -40 9 -11 19 -42 28 -80
1 -5 3 -10 4 -13 1 -3 4 -14 5 -25 1 -11 3 -21 5 -22 1 -2 4 -16 6 -33 6 -41
62 -210 87 -265 12 -25 22 -47 22 -50 1 -3 7 -18 13 -33 7 -16 12 -34 12 -42
0 -8 5 -17 10 -20 6 -4 17 -21 25 -38 8 -18 19 -39 25 -47 13 -19 41 -89 38
-94 -2 -2 5 -13 16 -24 10 -12 16 -27 14 -34 -3 -7 8 -30 24 -52 15 -21 28
-45 28 -52 0 -7 10 -21 23 -31 28 -23 82 -93 71 -93 -8 0 38 -44 107 -103 18
-16 50 -38 70 -50 20 -12 45 -33 55 -48 10 -15 22 -25 26 -23 4 3 8 0 8 -6 0
-6 5 -8 10 -5 6 3 10 1 10 -5 0 -6 5 -8 10 -5 6 3 10 1 10 -5 0 -6 4 -9 9 -6
11 7 71 -25 71 -37 0 -5 5 -5 10 -2 6 3 10 2 10 -3 0 -5 18 -17 40 -27 22 -10
40 -21 40 -25 0 -5 11 -11 24 -14 14 -3 53 -19 88 -35 35 -16 81 -32 103 -36
22 -4 45 -11 50 -15 6 -5 30 -11 55 -15 25 -3 59 -9 75 -13 17 -3 51 -6 78 -6
26 0 47 -3 47 -6 0 -4 30 -7 68 -7 66 0 128 -7 167 -20 34 -11 288 -6 334 7
23 6 49 9 56 6 7 -2 24 2 39 9 14 8 26 11 26 8 0 -3 7 0 15 7 8 7 15 9 15 5 0
-4 7 -2 15 5 8 7 15 9 15 5 0 -4 6 -3 13 2 6 5 26 9 42 8 17 0 36 3 43 8 6 5
12 6 12 2 0 -5 9 0 21 11 12 10 24 18 28 18 6 -2 154 65 199 90 22 12 86 65
154 129 16 15 32 27 35 27 3 0 50 44 103 98 54 53 104 102 111 108 28 23 70
78 106 138 20 33 46 68 56 77 11 9 20 28 20 42 0 15 4 27 9 27 5 0 6 5 3 10
-3 6 -1 10 5 10 6 0 8 5 5 10 -3 6 -1 10 6 10 7 0 10 3 7 6 -3 3 3 28 13 56
10 28 16 55 13 60 -3 4 6 33 20 64 14 31 24 60 21 64 -3 5 1 10 7 12 21 7 13
266 -9 301 -4 7 -8 36 -10 66 -1 30 -7 66 -12 80 -6 14 -13 37 -15 51 -3 14
-5 26 -7 28 -1 1 -2 5 -3 10 -1 4 -5 13 -9 20 -5 6 -5 12 -2 12 4 0 -3 14 -15
30 -12 17 -17 30 -11 30 8 0 8 6 1 18 -5 9 -23 46 -40 82 -16 36 -35 74 -42
85 -32 52 -43 71 -43 77 0 3 -35 54 -77 112 -43 58 -78 109 -78 114 0 5 -31
42 -70 82 -38 40 -70 78 -70 82 0 5 -4 6 -10 3 -5 -3 -10 1 -10 10 0 20 38 54
61 55 9 0 22 7 29 15 6 8 21 17 32 21 12 3 82 51 157 107 144 106 214 173 383
366 9 11 14 22 10 25 -3 3 0 6 7 6 7 0 9 5 6 10 -3 6 -1 10 5 10 6 0 8 5 5 10
-3 6 -1 10 6 10 7 0 10 3 6 6 -3 4 1 13 9 21 8 8 12 19 9 24 -4 5 -1 9 5 9 6
0 8 5 5 10 -3 6 -1 10 5 10 6 0 8 5 5 10 -3 6 -1 10 5 10 6 0 8 5 5 10 -3 6
-1 10 6 10 7 0 10 3 6 6 -3 3 3 16 14 28 27 28 88 156 88 181 0 11 3 54 7 95
8 87 9 344 1 410 -3 25 -10 57 -16 73 -6 15 -8 27 -5 27 4 0 1 7 -6 15 -7 8
-9 15 -4 15 4 0 3 5 -4 12 -7 7 -12 22 -12 33 0 12 -3 25 -7 29 -4 3 -8 15
-10 25 -1 10 -8 31 -14 47 -7 16 -13 32 -13 35 -1 3 -48 69 -106 148 -58 79
-105 146 -105 149 0 11 -68 102 -75 102 -4 0 -20 19 -37 43 -30 41 -103 120
-103 112 0 -6 -33 20 -79 63 -51 47 -426 229 -452 220 -8 -3 -22 -1 -32 4 -10
5 -33 10 -50 10 -18 0 -37 5 -43 9 -6 5 -23 10 -38 11 -14 1 -26 6 -26 11 0 4
-4 5 -10 2 -5 -3 -18 -1 -28 4 -10 5 -41 13 -68 16 -27 4 -56 8 -64 9 -8 1
-33 7 -55 14 -22 6 -49 11 -60 11 -11 0 -41 4 -67 9 -27 5 -50 7 -53 4z"/>
<path d="M5465 10871 c-3 -3 -12 -6 -20 -7 -17 -3 -212 -119 -232 -139 -8 -8
-46 -33 -84 -56 -38 -23 -69 -44 -69 -48 0 -4 -19 -18 -41 -31 -23 -12 -50
-31 -59 -40 -10 -10 -39 -30 -64 -45 -25 -15 -46 -30 -46 -34 0 -4 -22 -20
-50 -36 -27 -16 -50 -32 -50 -36 0 -4 -18 -18 -40 -30 -22 -13 -40 -26 -40
-30 0 -4 -18 -18 -40 -30 -22 -13 -40 -26 -40 -30 0 -4 -20 -19 -45 -33 -25
-15 -45 -30 -45 -34 0 -4 -16 -16 -35 -26 -19 -11 -35 -23 -35 -27 0 -4 -24
-21 -52 -38 -29 -17 -48 -31 -43 -31 6 0 -4 -9 -22 -20 -18 -10 -41 -27 -52
-37 -11 -10 -38 -31 -61 -48 -57 -42 -122 -92 -140 -108 -8 -8 -30 -22 -47
-33 -18 -10 -33 -22 -33 -26 0 -4 -12 -14 -27 -22 -25 -12 -41 -25 -105 -80
-9 -8 -29 -23 -45 -32 -26 -17 -58 -42 -122 -95 -13 -11 -37 -27 -52 -35 -16
-8 -29 -18 -29 -23 0 -4 -16 -16 -35 -27 -19 -10 -35 -22 -35 -26 0 -4 -20
-19 -45 -34 -25 -14 -45 -29 -45 -33 0 -4 -16 -16 -35 -27 -19 -10 -35 -22
-35 -25 0 -4 -21 -21 -47 -38 -56 -37 -108 -73 -143 -101 -31 -25 -111 -80
-168 -117 -24 -16 -54 -38 -67 -50 -13 -11 -42 -31 -65 -44 -22 -12 -40 -26
-40 -30 0 -4 -22 -20 -50 -36 -27 -15 -50 -31 -50 -35 0 -4 -27 -23 -60 -43
-33 -20 -60 -40 -60 -43 0 -4 -20 -18 -45 -32 -24 -13 -42 -26 -39 -29 2 -3
-4 -10 -15 -15 -41 -23 -158 -143 -182 -188 -7 -12 -18 -29 -26 -36 -7 -7 -14
-22 -14 -33 -1 -10 -2 -25 -3 -31 -1 -7 1 -22 5 -34 4 -11 9 -34 12 -50 5 -35
41 -97 50 -87 4 3 7 1 7 -5 0 -19 71 -31 145 -24 96 8 247 7 385 -3 63 -4 219
-7 345 -7 307 2 1470 11 1520 13 22 0 45 0 50 -1 6 -1 14 -2 19 -1 4 1 106 4
225 7 119 2 263 7 321 11 90 5 362 6 720 2 83 -1 142 2 317 16 23 2 58 8 77
15 20 6 51 13 69 15 17 2 32 4 32 5 0 1 20 3 45 5 25 2 53 5 62 7 26 6 85 74
98 113 23 71 -9 156 -67 177 -18 7 -33 15 -33 19 0 4 -16 13 -35 19 -19 6 -35
16 -35 21 0 6 -4 7 -10 4 -5 -3 -10 -2 -10 3 0 5 -10 14 -22 20 -13 6 -45 24
-73 40 -27 16 -72 42 -100 57 -27 15 -66 40 -86 56 -19 15 -47 33 -62 40 -15
7 -27 15 -27 19 0 4 -13 13 -30 20 -16 7 -30 16 -30 20 0 4 -20 15 -45 24 -25
10 -45 21 -45 26 0 5 -16 14 -35 20 -19 6 -35 15 -35 19 0 4 -35 25 -77 46
-43 22 -80 42 -83 45 -3 4 -20 12 -37 19 -18 8 -33 17 -33 21 0 4 -18 12 -40
19 -21 6 -45 17 -52 24 -7 7 -28 19 -45 26 -18 7 -33 17 -33 22 0 5 -5 9 -11
9 -6 0 -46 19 -88 42 -42 24 -79 42 -83 40 -5 -1 -8 3 -8 8 0 6 -5 10 -11 10
-5 0 -31 10 -57 22 -26 12 -50 21 -54 20 -5 -1 -8 3 -8 8 0 6 -7 10 -15 10
-13 0 -25 5 -64 27 -6 4 21 63 29 63 4 0 11 11 14 25 4 14 11 25 17 25 6 0 7
5 4 10 -3 6 -2 10 2 10 5 0 15 16 22 35 7 19 16 35 21 35 5 0 14 16 20 35 6
19 16 35 21 35 6 0 7 5 4 10 -3 6 -2 10 3 10 6 0 13 11 16 25 4 14 11 25 17
25 6 0 7 5 4 10 -3 6 -2 10 2 10 5 0 15 16 22 35 7 19 17 35 22 35 5 0 8 3 7
8 -2 7 43 103 53 112 3 3 13 28 24 55 10 28 22 53 27 56 4 3 9 17 10 32 1 15
5 27 9 27 7 0 24 66 22 88 0 6 3 12 7 12 8 0 43 130 37 137 -3 2 2 29 9 59 8
30 12 59 9 64 -3 5 0 12 6 15 5 4 8 13 5 20 -2 7 -2 16 1 19 6 6 12 45 17 111
3 52 -37 120 -80 135 -34 12 -151 20 -159 11z"/>
<path d="M20300 10749 c-46 -18 -74 -42 -170 -141 -206 -214 -983 -984 -1052
-1042 -48 -40 -71 -68 -83 -101 -21 -55 -15 -117 14 -154 29 -36 35 -51 67
-176 44 -170 44 -267 0 -446 -77 -320 -165 -526 -362 -844 -69 -111 -106 -160
-141 -188 -26 -20 -67 -52 -89 -71 -41 -33 -224 -110 -464 -196 -456 -164
-751 -235 -1215 -294 -166 -21 -759 -58 -810 -50 -24 3 -76 1 -116 -6 -41 -6
-123 -15 -184 -20 -141 -11 -257 -45 -415 -121 -447 -215 -671 -391 -814 -641
-15 -25 -59 -82 -98 -125 -90 -100 -175 -227 -248 -374 -156 -309 -261 -624
-291 -870 -6 -51 -18 -106 -25 -122 -24 -45 -24 -473 -1 -597 118 -635 280
-1019 609 -1450 120 -157 184 -227 273 -300 111 -90 359 -246 500 -315 139
-67 425 -185 450 -185 8 0 54 -13 101 -30 310 -107 598 -158 945 -167 189 -5
237 -3 300 11 192 43 290 166 328 411 6 39 14 223 17 409 l7 338 29 -72 c33
-84 105 -194 221 -340 46 -58 90 -122 96 -143 21 -64 200 -321 307 -440 110
-123 253 -207 352 -207 74 0 288 85 437 173 28 17 160 85 295 152 228 114 250
127 301 183 68 72 84 121 82 247 -1 95 -2 100 -101 365 -55 149 -75 191 -147
315 -35 61 -87 162 -115 225 -29 63 -82 173 -118 245 -65 129 -204 456 -197
464 7 6 78 -42 158 -107 44 -36 275 -190 515 -344 241 -154 464 -298 497 -321
33 -23 137 -93 230 -155 94 -62 181 -124 195 -137 27 -24 81 -43 200 -69 113
-25 129 -19 372 152 82 58 228 201 314 307 88 109 109 177 101 319 -7 109 -27
191 -60 246 -41 68 -233 287 -393 448 -89 89 -160 162 -158 162 1 0 67 -16
146 -35 343 -86 593 -129 708 -123 127 6 179 36 330 190 38 38 85 141 140 303
26 77 68 199 94 270 173 475 286 1264 286 1985 0 91 5 238 12 328 15 207 0
500 -36 672 -23 108 -118 407 -181 565 -57 144 -226 451 -306 555 -14 19 -41
64 -59 100 -37 74 -250 352 -421 550 -121 140 -275 301 -414 432 -44 42 -109
107 -145 145 -97 102 -195 179 -288 226 -75 37 -92 41 -170 44 -70 3 -98 -1
-142 -18z"/>
<path d="M24084 9253 c-19 -12 -40 -23 -46 -23 -6 0 -8 -3 -5 -7 4 -3 2 -12
-5 -20 -12 -15 -14 -86 -4 -168 3 -27 8 -79 11 -115 2 -36 9 -84 14 -108 4
-24 7 -56 6 -72 -1 -17 1 -30 6 -30 4 0 4 -13 -1 -30 -5 -16 -6 -30 -2 -30 4
0 7 -28 8 -63 1 -54 4 -90 19 -222 2 -16 6 -61 9 -100 3 -38 8 -81 11 -95 3
-14 8 -43 11 -65 3 -22 7 -53 10 -70 3 -16 7 -50 10 -75 5 -43 17 -134 28
-195 2 -16 8 -52 12 -80 3 -27 8 -59 11 -70 3 -11 5 -32 6 -47 0 -16 4 -28 9
-28 5 0 6 -11 4 -25 -3 -14 -1 -25 3 -25 4 0 8 -6 8 -12 1 -22 11 -67 18 -78
3 -5 3 -10 -2 -11 -4 0 -17 -2 -28 -4 -11 -2 -47 -6 -80 -9 -65 -6 -89 -9
-180 -21 -33 -5 -72 -9 -87 -9 -16 -1 -28 -4 -28 -7 0 -3 -23 -5 -50 -5 -28 1
-50 -1 -50 -4 0 -4 -10 -6 -22 -7 -13 0 -36 -3 -53 -7 -54 -12 -80 -17 -97
-17 -10 0 -18 -4 -18 -9 0 -4 -8 -7 -17 -5 -10 1 -33 -4 -52 -11 -19 -8 -36
-12 -39 -10 -2 3 -22 -4 -43 -14 -21 -11 -45 -20 -53 -20 -22 0 -136 -51 -136
-61 0 -5 -7 -6 -15 -3 -8 4 -15 2 -15 -4 0 -5 -13 -12 -29 -15 -26 -5 -84 -39
-118 -67 -7 -6 -16 -9 -20 -8 -14 3 -58 -19 -72 -36 -7 -9 -17 -14 -21 -11
-10 6 -34 -74 -31 -105 3 -34 33 -100 45 -100 5 0 7 -3 3 -6 -6 -7 58 -74 70
-74 4 0 31 -11 58 -24 71 -35 123 -57 143 -61 30 -5 147 -46 157 -55 6 -4 26
-11 45 -15 19 -3 49 -13 66 -21 17 -7 40 -15 50 -17 27 -4 186 -56 206 -67 9
-5 30 -12 46 -15 16 -2 45 -12 65 -20 29 -12 37 -12 37 -3 0 8 3 9 8 3 13 -18
51 -35 77 -35 13 0 42 -9 64 -21 22 -11 45 -18 51 -14 5 3 26 -2 45 -11 20 -9
39 -14 42 -10 3 3 11 2 17 -3 6 -5 38 -16 71 -26 33 -9 65 -21 71 -26 6 -5 14
-6 17 -2 4 3 17 2 30 -4 12 -6 51 -20 87 -31 36 -10 84 -25 106 -32 23 -7 46
-10 52 -6 6 3 12 3 14 -2 5 -13 73 -42 76 -33 4 11 62 -10 62 -22 0 -5 9 -6
19 -2 11 3 28 2 38 -3 20 -10 116 -42 142 -47 26 -5 124 -36 146 -46 11 -5 31
-12 45 -14 14 -3 38 -10 53 -16 15 -7 30 -9 33 -6 3 3 21 -3 40 -14 19 -10 46
-19 60 -19 13 0 36 -7 49 -16 13 -9 33 -13 44 -9 10 3 22 1 26 -5 3 -5 15 -10
26 -10 10 0 19 -4 19 -9 0 -5 9 -11 20 -14 11 -3 20 0 20 5 0 7 4 7 13 1 12
-10 78 -35 105 -39 32 -6 112 -39 112 -47 0 -4 8 -6 18 -3 10 4 36 -2 58 -13
21 -11 42 -17 46 -14 5 2 8 0 8 -6 0 -5 8 -9 18 -8 14 1 61 -13 142 -41 8 -3
17 -6 20 -7 3 -1 13 -5 23 -8 9 -4 25 -10 35 -14 9 -3 20 -6 24 -5 4 1 28 -7
53 -18 26 -11 60 -22 76 -25 17 -3 38 -10 47 -15 25 -13 114 -39 158 -45 21
-4 50 -8 64 -11 14 -2 57 -4 95 -3 39 0 78 0 88 0 10 0 15 5 11 11 -4 6 -1 9
7 6 16 -6 87 63 109 106 14 26 18 83 9 115 -2 8 -14 26 -26 40 -12 14 -21 28
-21 31 1 3 -24 32 -56 65 -83 88 -82 86 -104 130 -11 22 -30 50 -42 63 -11 12
-18 27 -14 34 4 7 3 8 -4 4 -7 -4 -12 -2 -12 4 0 6 -11 26 -25 44 -14 18 -25
38 -25 44 0 7 -4 12 -10 12 -5 0 -10 7 -10 15 0 8 -5 15 -11 15 -5 0 -8 4 -4
9 3 5 -5 17 -17 25 -12 9 -19 16 -15 16 4 0 -4 12 -18 27 -14 15 -25 32 -25
36 0 5 -6 15 -12 22 -29 33 -38 45 -33 45 3 0 -3 10 -15 22 -11 12 -20 26 -20
30 0 5 -4 6 -10 3 -5 -3 -10 0 -10 8 0 8 -9 25 -21 38 -11 13 -29 34 -39 46
-10 12 -16 24 -13 27 4 3 1 6 -6 6 -7 0 -19 7 -27 15 -9 8 -12 15 -8 15 4 0
-8 15 -28 33 -19 17 -35 35 -34 39 1 5 -11 21 -26 37 -16 16 -28 34 -28 40 0
6 -4 11 -10 11 -5 0 -10 7 -10 15 0 8 -5 15 -11 15 -5 0 -8 4 -5 9 3 4 -6 18
-19 31 -13 13 -23 26 -20 30 2 3 -5 13 -16 20 -10 8 -19 18 -19 23 0 5 -6 15
-12 22 -29 32 -38 45 -33 45 3 0 -4 9 -15 20 -11 11 -20 25 -20 31 0 5 -5 7
-12 3 -7 -4 -8 -3 -4 4 4 6 -1 20 -11 30 -36 37 -73 82 -68 82 5 0 -18 29 -43
56 -7 8 -10 14 -6 14 4 0 -6 12 -22 28 -16 15 -30 32 -32 37 -3 10 -32 49 -76
100 -15 17 -32 42 -38 57 -7 15 -15 25 -19 22 -4 -2 -11 6 -14 18 -4 11 -17
31 -29 43 -11 13 -30 35 -41 50 -11 16 -26 34 -33 42 -7 7 -10 13 -5 13 4 0 3
4 -3 8 -19 13 -64 79 -58 84 3 4 -4 9 -15 13 -12 3 -21 12 -21 18 0 7 -9 19
-19 27 -11 7 -18 17 -15 21 2 4 -9 18 -25 32 -17 14 -28 27 -25 30 2 2 -9 19
-25 36 -17 18 -30 34 -30 37 0 3 -18 26 -40 51 -22 26 -37 51 -34 57 3 6 3 8
-1 4 -5 -4 -26 14 -47 40 -21 26 -51 61 -67 78 -15 17 -26 38 -24 45 3 8 1 11
-3 7 -7 -7 -35 14 -35 26 0 3 -16 23 -35 43 -20 21 -38 48 -42 61 -3 12 -10
22 -16 22 -6 0 -8 3 -4 6 3 3 -2 14 -11 23 -19 20 -50 59 -72 92 -8 12 -23 31
-32 41 -10 10 -15 18 -12 18 3 0 -4 12 -15 26 -12 15 -21 33 -21 40 0 8 -5 14
-12 14 -6 0 -9 2 -6 5 3 3 -9 21 -26 40 -46 50 -55 62 -50 67 2 3 -13 21 -33
41 -43 41 -66 67 -59 67 2 0 -18 22 -45 49 -27 27 -49 54 -49 60 0 6 -3 10 -7
9 -17 -3 -43 15 -43 30 0 8 -3 13 -6 9 -6 -6 -34 16 -34 26 0 7 -69 77 -76 77
-3 0 -12 7 -21 15 -24 25 -126 18 -169 -12z"/>
<path d="M8400 8885 c-25 -8 -68 -29 -97 -47 -80 -51 -303 -259 -435 -405 -66
-73 -124 -133 -129 -133 -5 0 -9 -4 -9 -9 0 -6 -18 -27 -40 -48 -23 -21 -89
-96 -147 -168 -59 -71 -112 -133 -119 -137 -7 -5 -29 -34 -50 -65 -21 -32 -50
-67 -64 -78 -46 -37 -125 -127 -135 -154 -5 -16 -22 -41 -37 -57 -87 -94 -107
-119 -138 -168 -19 -29 -50 -64 -69 -77 -40 -27 -141 -124 -141 -136 -1 -10
-24 -36 -87 -96 l-50 -48 -60 30 c-33 17 -64 31 -69 31 -4 0 -26 9 -48 19 -73
35 -309 102 -378 108 -38 3 -68 9 -68 13 0 4 -26 10 -58 13 -31 3 -86 13 -120
22 -43 11 -113 17 -220 18 -193 2 -294 -19 -464 -97 -31 -14 -62 -26 -68 -26
-19 0 -202 -100 -254 -138 -27 -21 -65 -46 -85 -57 -58 -32 -321 -310 -321
-340 0 -2 -30 -35 -68 -72 -37 -37 -79 -84 -92 -103 -38 -53 -146 -269 -160
-320 -7 -25 -19 -59 -26 -77 -28 -63 -34 -132 -40 -426 -6 -262 -4 -306 11
-370 10 -39 21 -81 25 -92 4 -11 16 -42 25 -70 27 -77 64 -145 105 -195 21
-25 50 -69 65 -99 34 -69 166 -218 219 -250 23 -13 73 -36 112 -51 39 -15 87
-38 105 -52 51 -37 147 -76 230 -93 41 -8 103 -23 139 -32 54 -15 110 -18 345
-18 178 0 280 -4 280 -10 0 -6 -4 -49 -9 -97 -14 -158 -15 -389 0 -493 17
-129 35 -205 47 -205 5 0 7 -13 4 -28 -4 -18 3 -50 19 -87 13 -33 24 -65 24
-71 0 -7 16 -35 35 -64 19 -29 35 -56 35 -61 0 -13 39 -90 55 -109 7 -8 16
-26 20 -40 15 -49 51 -90 110 -125 33 -19 80 -53 105 -76 25 -22 65 -52 90
-66 25 -15 55 -36 68 -47 13 -12 25 -20 28 -18 13 7 45 0 58 -14 22 -21 147
-64 204 -69 81 -7 195 -27 237 -41 22 -7 47 -13 55 -11 8 1 67 -2 130 -6 90
-6 128 -5 172 7 31 8 65 12 75 10 29 -8 165 24 194 45 14 11 55 28 91 39 36
11 80 30 98 41 19 11 38 18 42 15 11 -7 68 15 68 26 0 9 116 100 128 100 10 0
127 113 140 135 4 7 29 24 57 40 27 15 56 36 63 46 7 10 18 19 24 19 11 0 140
135 147 154 2 6 21 31 43 55 21 24 38 48 38 53 0 10 35 60 67 96 12 13 21 27
20 31 -3 10 66 176 75 179 16 7 38 61 38 92 0 17 11 55 25 85 14 29 31 82 38
117 12 61 15 338 4 368 -11 30 -36 156 -42 210 -4 30 -14 80 -22 110 -9 30
-16 68 -15 84 1 31 -57 205 -108 326 -17 41 -32 86 -32 100 0 20 -52 143 -90
210 -4 8 -29 57 -56 108 l-47 93 45 37 c25 20 68 60 96 87 28 28 90 86 139
130 48 44 129 119 179 166 50 47 117 110 148 139 32 29 68 68 80 87 13 19 54
57 91 84 37 27 72 60 77 72 5 12 25 33 46 47 48 33 101 84 148 143 21 26 63
71 94 100 30 29 89 87 130 130 41 42 80 77 86 77 7 0 20 14 30 31 10 17 52 70
94 119 215 250 242 296 242 405 0 110 -33 166 -216 375 -134 154 -335 346
-629 600 -143 124 -303 269 -356 322 -117 119 -189 158 -284 157 -33 0 -80 -7
-105 -14z"/>
<path d="M10070 5083 c-36 -25 -56 -51 -86 -109 -24 -49 -25 -58 -20 -170 2
-66 7 -150 10 -189 4 -38 16 -191 27 -340 11 -148 25 -286 30 -306 5 -20 18
-126 29 -235 20 -197 41 -375 78 -654 11 -80 25 -201 32 -270 13 -129 32 -286
49 -400 5 -36 19 -200 32 -365 12 -165 26 -302 29 -305 4 -3 10 -54 14 -115
18 -294 42 -427 96 -543 27 -58 34 -65 87 -89 73 -34 139 -41 181 -19 26 13
46 44 103 154 38 75 107 190 152 254 45 65 89 130 98 145 9 16 43 71 75 124
33 53 60 102 62 110 2 8 16 35 32 60 15 25 44 79 62 120 19 41 71 130 115 199
103 162 205 332 207 346 1 6 39 74 84 151 45 77 82 142 82 145 0 3 57 101 126
219 70 117 127 218 128 224 1 6 38 75 83 155 44 80 109 199 143 265 35 66 90
162 122 213 33 52 61 99 62 105 2 16 54 106 109 190 60 91 184 335 203 397 8
28 24 72 36 98 39 88 41 141 7 202 -53 96 -133 115 -234 54 -33 -20 -62 -40
-65 -44 -3 -4 -32 -21 -65 -38 -33 -16 -99 -53 -147 -80 -48 -28 -109 -60
-135 -72 -68 -30 -362 -190 -377 -206 -14 -13 -103 -67 -336 -204 -69 -40
-174 -107 -234 -148 l-109 -74 -18 24 c-10 12 -19 27 -19 31 0 5 -8 21 -19 35
-10 15 -65 108 -121 207 -152 267 -212 348 -391 526 -86 85 -225 202 -266 223
-42 21 -112 21 -143 -1z"/>
</g>
</svg>
